<?xml version="1.0" standalone="no"?>
<!DOCTYPE svg PUBLIC "-//W3C//DTD SVG 20010904//EN"
 "http://www.w3.org/TR/2001/REC-SVG-20010904/DTD/svg10.dtd">
<svg version="1.0" xmlns="http://www.w3.org/2000/svg"
 width="512.000000pt" height="512.000000pt" viewBox="0 0 512.000000 512.000000"
 preserveAspectRatio="xMidYMid meet">
<metadata>
Created by potrace 1.14, written by Peter Selinger 2001-2017
</metadata>
<g transform="translate(0.000000,512.000000) scale(0.100000,-0.100000)"
fill="#000000" stroke="none">
<path d="M1365 4623 c-188 -26 -347 -158 -421 -349 -21 -55 -27 -92 -31 -186
l-6 -118 -168 0 c-94 0 -180 -5 -196 -11 -85 -32 -135 -148 -102 -236 15 -42
68 -92 109 -103 19 -6 178 -10 360 -10 318 0 326 -1 365 -23 133 -75 118 -278
-24 -326 -24 -7 -184 -11 -520 -11 -485 0 -487 0 -531 -22 -133 -68 -129 -266
7 -324 25 -11 105 -14 368 -14 l335 0 0 -489 0 -490 -184 -3 c-169 -3 -187 -5
-213 -24 -115 -86 -106 -250 17 -311 45 -22 48 -22 615 -23 540 0 572 -1 612
-20 46 -20 77 -61 94 -122 12 -45 0 -99 -34 -149 -43 -64 -40 -63 -492 -69
l-410 -5 1 -210 c1 -198 3 -214 27 -282 50 -142 145 -248 277 -312 l75 -36
1641 0 1641 0 85 42 c65 32 100 58 142 104 67 72 121 173 135 255 7 38 12 639
17 1704 7 1837 10 1744 -62 1889 -62 126 -181 227 -318 269 -46 15 -210 17
-1616 18 -861 1 -1578 -1 -1595 -3z m2179 -905 c29 -29 123 -128 209 -220
l157 -167 0 -921 0 -922 -29 -29 -29 -29 -176 0 -176 0 0 45 0 45 163 2 162 3
3 873 2 872 -164 0 c-160 0 -166 1 -193 24 l-28 24 -3 181 -3 181 -472 -2
-472 -3 -3 -27 c-3 -25 -7 -28 -43 -28 l-39 0 0 46 c0 37 5 51 29 75 l29 29
513 0 512 0 51 -52z m-330 -403 l206 -216 0 -930 0 -930 -25 -24 -24 -25 -694
0 c-687 0 -695 0 -721 21 l-26 20 0 1123 c0 1186 -2 1139 45 1164 14 8 179 11
527 12 l506 0 206 -215z"/>
<path d="M3530 3604 c-1 -2 -1 -57 -1 -121 l0 -118 117 -3 118 -3 -24 28 c-14
15 -29 33 -35 38 -5 6 -47 49 -92 97 -46 47 -83 84 -83 82z"/>
<path d="M2010 2365 l0 -1075 665 0 665 0 -2 873 -3 872 -168 5 c-221 7 -207
-9 -207 226 l0 174 -475 0 -475 0 0 -1075z m807 316 c55 -26 75 -66 81 -163 5
-78 5 -78 33 -78 18 0 32 -7 39 -19 6 -12 10 -115 10 -265 0 -209 -2 -247 -16
-260 -23 -24 -555 -24 -578 0 -14 13 -16 52 -16 268 0 271 1 276 52 276 28 0
28 1 28 64 0 98 28 152 95 182 48 21 220 18 272 -5z"/>
<path d="M2554 2589 c-12 -14 -19 -40 -22 -85 l-4 -64 141 0 141 0 0 69 c0 93
-11 101 -141 101 -84 0 -98 -3 -115 -21z"/>
<path d="M2450 2160 l0 -190 220 0 220 0 0 190 0 190 -220 0 -220 0 0 -190z
m261 100 c45 -24 58 -101 23 -131 -8 -6 -14 -21 -14 -33 0 -27 -27 -66 -45
-66 -22 0 -45 29 -45 57 0 14 -9 36 -20 50 -28 36 -25 70 9 104 31 30 59 36
92 19z"/>
<path d="M3040 3245 l0 -125 116 0 c76 0 114 4 112 10 -5 15 -211 238 -220
239 -5 1 -8 -55 -8 -124z"/>
</g>
</svg>
